<svg xmlns="http://www.w3.org/2000/svg" width="320" height="80" viewBox="0 0 320 80">
<rect x="16" y="0" width="16" height="16" fill="black"/>
<rect x="32" y="0" width="16" height="16" fill="black"/>
<rect x="48" y="0" width="16" height="16" fill="black"/>
<rect x="0" y="16" width="16" height="16" fill="black"/>
<rect x="16" y="32" width="16" height="16" fill="black"/>
<rect x="32" y="32" width="16" height="16" fill="black"/>
<rect x="48" y="48" width="16" height="16" fill="black"/>
<rect x="0" y="64" width="16" height="16" fill="black"/>
<rect x="16" y="64" width="16" height="16" fill="black"/>
<rect x="32" y="64" width="16" height="16" fill="black"/>
<rect x="80" y="0" width="16" height="16" fill="black"/>
<rect x="96" y="0" width="16" height="16" fill="black"/>
<rect x="112" y="0" width="16" height="16" fill="black"/>
<rect x="80" y="16" width="16" height="16" fill="black"/>
<rect x="128" y="16" width="16" height="16" fill="black"/>
<rect x="80" y="32" width="16" height="16" fill="black"/>
<rect x="96" y="32" width="16" height="16" fill="black"/>
<rect x="112" y="32" width="16" height="16" fill="black"/>
<rect x="80" y="48" width="16" height="16" fill="black"/>
<rect x="80" y="64" width="16" height="16" fill="black"/>
<rect x="176" y="0" width="16" height="16" fill="black"/>
<rect x="192" y="0" width="16" height="16" fill="black"/>
<rect x="160" y="16" width="16" height="16" fill="black"/>
<rect x="208" y="16" width="16" height="16" fill="black"/>
<rect x="160" y="32" width="16" height="16" fill="black"/>
<rect x="208" y="32" width="16" height="16" fill="black"/>
<rect x="160" y="48" width="16" height="16" fill="black"/>
<rect x="208" y="48" width="16" height="16" fill="black"/>
<rect x="176" y="64" width="16" height="16" fill="black"/>
<rect x="192" y="64" width="16" height="16" fill="black"/>
<rect x="240" y="0" width="16" height="16" fill="black"/>
<rect x="288" y="0" width="16" height="16" fill="black"/>
<rect x="240" y="16" width="16" height="16" fill="black"/>
<rect x="272" y="16" width="16" height="16" fill="black"/>
<rect x="240" y="32" width="16" height="16" fill="black"/>
<rect x="256" y="32" width="16" height="16" fill="black"/>
<rect x="240" y="48" width="16" height="16" fill="black"/>
<rect x="272" y="48" width="16" height="16" fill="black"/>
<rect x="240" y="64" width="16" height="16" fill="black"/>
<rect x="288" y="64" width="16" height="16" fill="black"/>
</svg>
